<svg xmlns="http://www.w3.org/2000/svg" version="1.1" xmlns:xlink="http://www.w3.org/1999/xlink" xmlns:svgjs="http://svgjs.com/svgjs" width="1440" height="560" preserveAspectRatio="none" viewBox="0 0 1440 560"><g mask="url(&quot;#SvgjsMask2579&quot;)" fill="none"><rect width="1440" height="560" x="0" y="0" fill="url(#SvgjsLinearGradient2580)"></rect><path d="M700.1-33.64C622.41-23.06 661.81 145.6 451.3 157.33 240.79 169.06 87.87 355.15-46.3 358.93" stroke="rgba(227, 227, 227, 0.23)" stroke-width="2"></path><path d="M675.9-65.21C593.85-61.85 624.02 63.75 378.21 73.6 132.39 83.45-53.41 341.5-217.18 348" stroke="rgba(227, 227, 227, 0.23)" stroke-width="2"></path><path d="M1263.31-74.03C1103.4-29.4 1063.18 406.75 816.36 417.12 569.55 427.49 592.89 347.12 369.42 347.12 145.94 347.12 35.57 416.91-77.53 417.12" stroke="rgba(227, 227, 227, 0.23)" stroke-width="2"></path><path d="M926.25-98.07C784.24-84.65 713.17 202.41 448.61 214.02 184.04 225.63 95.79 358.01-29.04 359.62" stroke="rgba(227, 227, 227, 0.23)" stroke-width="2"></path><path d="M526.88-96.52C404.63-73.27 345.79 235.56 156.81 236.37-32.17 237.18-110.57 61.8-213.26 57.17" stroke="rgba(227, 227, 227, 0.23)" stroke-width="2"></path></g><defs><mask id="SvgjsMask2579"><rect width="1440" height="560" fill="#ffffff"></rect></mask><linearGradient x1="15.28%" y1="139.29%" x2="84.72%" y2="-39.29%" gradientUnits="userSpaceOnUse" id="SvgjsLinearGradient2580"><stop stop-color="rgba(234, 105, 255, 1)" offset="0"></stop><stop stop-color="rgba(45, 178, 255, 1)" offset="1"></stop></linearGradient></defs></svg>