<svg xmlns="http://www.w3.org/2000/svg" version="1.1" xmlns:xlink="http://www.w3.org/1999/xlink" xmlns:svgjs="http://svgjs.com/svgjs" width="1440" height="560" preserveAspectRatio="none" viewBox="0 0 1440 560"><g mask="url(&quot;#SvgjsMask3257&quot;)" fill="none"><rect width="1440" height="560" x="0" y="0" fill="url(#SvgjsLinearGradient3258)"></rect><path d="M963.61-110.47C844.23-86.25 897.91 211.56 606.66 221.18 315.41 230.8 74.12 349.47-107.24 349.98" stroke="rgba(227, 227, 227, 0.23)" stroke-width="2"></path><path d="M1033.76-93.28C892.01-39.71 947.46 387.41 666.01 388.54 384.56 389.67 125.29 134.63-69.5 130.94" stroke="rgba(227, 227, 227, 0.23)" stroke-width="2"></path><path d="M578.85-83.35C434.22-38.7 395.87 370.32 184.08 375.7-27.7 381.08-105.03 227.06-210.68 224.5" stroke="rgba(227, 227, 227, 0.23)" stroke-width="2"></path><path d="M680.66-98.24C543-87.47 474.59 172.19 207.76 187.11-59.06 202.03-135.58 395.08-265.13 399.91" stroke="rgba(227, 227, 227, 0.23)" stroke-width="2"></path><path d="M708.65-37.02C583.77 28.26 643.46 439.79 412.04 442.3 180.62 444.81-22.7 221.99-181.18 218.3" stroke="rgba(227, 227, 227, 0.23)" stroke-width="2"></path></g><defs><mask id="SvgjsMask3257"><rect width="1440" height="560" fill="#ffffff"></rect></mask><linearGradient x1="15.28%" y1="139.29%" x2="84.72%" y2="-39.29%" gradientUnits="userSpaceOnUse" id="SvgjsLinearGradient3258"><stop stop-color="rgba(255, 50, 241, 1)" offset="0"></stop><stop stop-color="rgba(50, 180, 255, 1)" offset="1"></stop></linearGradient></defs></svg>