<svg xmlns="http://www.w3.org/2000/svg" version="1.1" xmlns:xlink="http://www.w3.org/1999/xlink" xmlns:svgjs="http://svgjs.com/svgjs" width="1440" height="560" preserveAspectRatio="none" viewBox="0 0 1440 560"><g mask="url(&quot;#SvgjsMask1106&quot;)" fill="none"><rect width="1440" height="560" x="0" y="0" fill="url(#SvgjsLinearGradient1107)"></rect><path d="M27.1 140C27.1 129.21 3.37 131.18 0 113.75C-10.18 61.18 -31.38 25.5 0 0C38.62 -31.38 70 0 140 0C210 0 210 0 280 0C350 0 350 0 420 0C490 0 490 0 560 0C630 0 630 0 700 0C770 0 770 0 840 0C901.66 0 902.86 -4.32 963.33 0C972.86 0.68 972.05 4.42 980 10C1050.38 59.42 1067.23 112.99 1120 110C1155.56 107.99 1119.66 29.08 1156.67 0C1189.66 -25.92 1208.34 0 1260 0C1330 0 1330 0 1400 0C1470 0 1497.72 -27.72 1540 0C1567.72 18.18 1567.53 69.53 1540 91.8C1497.53 126.16 1468.11 96.45 1400 113.26C1370.44 120.55 1344.65 126.63 1344.65 140C1344.65 153.37 1370.34 160.18 1400 166.74C1468.02 181.8 1498.49 149.66 1540 183.24C1568.49 206.29 1540 231.62 1540 280C1540 350 1540 350 1540 420C1540 445.46 1546.85 446.92 1540 470.91C1526.85 516.92 1534.59 537.99 1500 560C1464.59 582.54 1450 560 1400 560C1353.78 560 1350.1 570.94 1307.55 560C1280.1 552.94 1285.03 524 1260 524C1228.95 524 1230.05 551.08 1195.38 560C1160.05 569.08 1157.69 560 1120 560C1050 560 1050 560 980 560C910 560 910 560 840 560C770 560 770 560 700 560C630 560 630 560 560 560C490 560 490 560 420 560C380 560 366.15 582.41 340 560C296.15 522.41 301.57 440 280 440C260.37 440 293.25 529.44 257.6 560C223.25 589.44 198.8 560 140 560C70 560 35 595 0 560C-35 525 0 490 0 420C0 350 0 350 0 280C0 216.18 -10.99 209.11 0 152.35C2.56 139.11 27.1 148.51 27.1 140" stroke="rgba(240, 240, 240, 0.35)" stroke-width="2"></path><path d="M420 117.21C393.97 123.74 371 127.42 371 140C371 153.23 396.16 153.37 420 168.82C490.66 214.62 510.91 270.73 560 262.5C596.89 256.32 591.96 198.52 591.96 140C591.96 113.56 584.67 95.85 560 92.58C498.69 84.45 488.47 100.03 420 117.21" stroke="rgba(240, 240, 240, 0.35)" stroke-width="2"></path><path d="M840 238.38C809.75 238.38 791.2 250.18 785 280C772.32 340.99 782.96 354.53 802.25 420C810.46 447.86 819.12 466.67 840 466.67C864.66 466.67 876.74 450.16 893.33 420C928.08 356.83 957.94 332 942.67 280C931.27 241.19 888.59 238.38 840 238.38" stroke="rgba(240, 240, 240, 0.35)" stroke-width="2"></path><path d="M560 296.15C541.11 296.15 521.2 362.19 521.2 420C521.2 446.17 540.92 464.11 560 464.11C578.61 464.11 596.59 445.81 596.59 420C596.59 361.83 578.8 296.15 560 296.15" stroke="rgba(240, 240, 240, 0.35)" stroke-width="2"></path><path d="M1400 400C1384.76 400 1373.75 408.11 1373.75 420C1373.75 435.98 1381.98 455.74 1400 455.74C1437.1 455.74 1484 434.32 1484 420C1484 406.45 1439.88 400 1400 400" stroke="rgba(240, 240, 240, 0.35)" stroke-width="2"></path><path d="M14 0C14 1.12 5.39 4.38 0 4.38C-1.61 4.38 -1.67 0.52 0 0C5.33 -1.67 14 -1.07 14 0" stroke="rgba(240, 240, 240, 0.35)" stroke-width="2"></path><path d="M280 70C233.31 62.4 200 19.97 200 0C200 -15.03 240 0 280 0C350 0 350 0 420 0C490 0 490 0 560 0C610.91 0 612.07 -5.74 661.82 0C682.07 2.34 680.64 16.15 700 16.15C723.06 16.15 722.45 2.79 746.67 0C792.45 -5.28 793.34 0 840 0C860 0 862.12 -7.66 880 0C932.12 22.34 933.23 25.6 980 60C1028.39 95.6 1070.32 98.45 1070.32 140C1070.32 184.35 1030.42 230.97 980 231.8C915.26 232.86 906.75 137.23 840 143.78C766.75 150.96 759.59 260.33 700 259.26C654.59 258.44 666.73 198.54 630 140C596.73 86.98 609.58 60.73 560 36.13C504.58 8.63 488.99 27.47 420 35.81C348.99 44.4 343.31 80.3 280 70" stroke="rgba(240, 240, 240, 0.35)" stroke-width="2"></path><path d="M1253.91 140C1268.03 74.13 1237.33 61.29 1240 0C1240.38 -8.71 1250 0 1260 0C1330 0 1330 0 1400 0C1470 0 1483.82 -13.82 1540 0C1553.82 3.4 1553.4 27.36 1540 34.43C1483.4 64.32 1467.7 48.11 1400 73.93C1329.33 100.89 1263.26 106.97 1263.26 140C1263.26 173.03 1328.71 181.67 1400 206.07C1467.08 229.03 1486.85 206.64 1540 234.71C1556.85 243.61 1540 257.36 1540 280C1540 319.49 1565.24 344.85 1540 358.97C1495.24 384.01 1463.97 340.66 1400 358.33C1353.5 371.17 1358.24 387.63 1319.06 420C1288.24 445.46 1295.81 468.96 1260 474C1196.28 482.96 1163.47 424.04 1120 448C1085.47 467.04 1137.4 533.28 1104 560C1067.4 589.28 1042 560 980 560C910 560 910 560 840 560C801.66 560 763.33 570.36 763.33 560C763.33 548 804.72 541.89 840 515.28C897.5 471.89 900.37 472.43 948.89 420C970.37 396.79 954.13 365.32 980 364C1039.68 360.95 1069.41 432.5 1120 411.25C1169.41 390.5 1148.07 344.68 1180 280C1215.03 209.05 1238.03 214.13 1253.91 140" stroke="rgba(240, 240, 240, 0.35)" stroke-width="2"></path><path d="M0 203.82C39.25 203.82 61.43 240.34 120.47 280C131.43 287.37 131.88 287.46 140 297.87C186.49 357.46 211.34 352.17 229.69 420C246.8 483.23 240.78 513.4 210.93 560C195.94 583.4 175.47 560 140 560C70 560 35 595 0 560C-35 525 0 490 0 420C0 350 0 350 0 280C0 241.91 -20.98 203.82 0 203.82" stroke="rgba(240, 240, 240, 0.35)" stroke-width="2"></path><path d="M402.5 280C407.18 271.79 411.61 271.76 420 271.76C426.2 271.76 429.07 273.47 431.67 280C458.59 347.59 443.97 356.58 479.04 420C508.13 472.6 514.34 472.23 560 512.05C594.6 542.23 639.55 547.09 639.55 560C639.55 571.06 599.78 560 560 560C508.53 560 505.17 569.84 457.06 560C435.17 555.52 435.25 548.93 420 531.36C374.48 478.93 339.67 479.56 335.52 420C330.92 353.88 364.94 345.91 402.5 280" stroke="rgba(240, 240, 240, 0.35)" stroke-width="2"></path><path d="M636.36 420C636.36 363.12 668.32 303.33 700 303.33C731.6 303.33 762.92 363.09 762.92 420C762.92 468.89 731.58 514.92 700 514.92C668.3 514.92 636.36 468.91 636.36 420" stroke="rgba(240, 240, 240, 0.35)" stroke-width="2"></path><path d="M1373.58 560C1373.58 551.05 1386.5 530.21 1400 530.21C1413.99 530.21 1428.57 551.2 1428.57 560C1428.57 566.09 1414.28 560 1400 560C1386.79 560 1373.58 565.94 1373.58 560" stroke="rgba(240, 240, 240, 0.35)" stroke-width="2"></path><path d="M668.04 140C668.04 111.86 679.12 83.46 700 83.46C727.77 83.46 765.33 112.03 765.33 140C765.33 167.52 727.92 194.44 700 194.44C679.27 194.44 668.04 167.35 668.04 140" stroke="rgba(240, 240, 240, 0.35)" stroke-width="2"></path><path d="M926.15 140C926.15 124.18 954.71 110 980 110C998.57 110 1013.87 124.42 1013.87 140C1013.87 156.63 998.88 174.43 980 174.43C955.02 174.43 926.15 156.4 926.15 140" stroke="rgba(240, 240, 240, 0.35)" stroke-width="2"></path><path d="M1400 34.61C1361.69 34.61 1324.88 9.07 1324.88 0C1324.88 -8.24 1362.44 0 1400 0C1448.13 0 1496.25 -8.39 1496.25 0C1496.25 8.92 1447.38 34.61 1400 34.61" stroke="rgba(240, 240, 240, 0.35)" stroke-width="2"></path><path d="M0 255.29C12.73 255.29 39.07 263.55 39.07 280C39.07 304.87 10.68 337.93 0 337.93C-8.85 337.93 0 308.97 0 280C0 267.64 -6.8 255.29 0 255.29" stroke="rgba(240, 240, 240, 0.35)" stroke-width="2"></path><path d="M1285.93 280C1285.93 262.23 1342.79 245.39 1400 245.39C1461.42 245.39 1523.2 262.22 1523.2 280C1523.2 297.86 1461.4 316.67 1400 316.67C1342.77 316.67 1285.93 297.87 1285.93 280" stroke="rgba(240, 240, 240, 0.35)" stroke-width="2"></path><path d="M72.12 420C93.73 386.57 109.97 372.34 140 372.34C161.41 372.34 171.4 392.19 175 420C183.54 486.02 179.19 500.32 164.27 560C161.69 570.32 152.13 560 140 560C79.34 560 33.85 591.32 18.67 560C-0.09 521.32 33.07 480.4 72.12 420" stroke="rgba(240, 240, 240, 0.35)" stroke-width="2"></path><path d="M395.86 420C395.86 399.59 409.4 377.58 420 377.58C429.91 377.58 436.87 399.25 436.87 420C436.87 436.37 429.72 451.82 420 451.82C409.22 451.82 395.86 436.71 395.86 420" stroke="rgba(240, 240, 240, 0.35)" stroke-width="2"></path><path d="M676.14 420C676.14 398.67 688.12 376.25 700 376.25C711.85 376.25 723.6 398.66 723.6 420C723.6 438.33 711.84 455.59 700 455.59C688.11 455.59 676.14 438.34 676.14 420" stroke="rgba(240, 240, 240, 0.35)" stroke-width="2"></path><path d="M1249.23 420C1249.23 402.78 1256.16 380 1260 380C1263.73 380 1264.38 400.83 1264.38 420C1264.38 422.83 1262.58 424 1260 424C1255 424 1249.23 424.78 1249.23 420" stroke="rgba(240, 240, 240, 0.35)" stroke-width="2"></path><path d="M875 560C875 547.03 936.22 510.59 980 510.59C1000.72 510.59 1004 542.81 1004 560C1004 567.51 992 560 980 560C927.5 560 875 571.74 875 560" stroke="rgba(240, 240, 240, 0.35)" stroke-width="2"></path></g><defs><mask id="SvgjsMask1106"><rect width="1440" height="560" fill="#ffffff"></rect></mask><linearGradient x1="15.28%" y1="-39.29%" x2="84.72%" y2="139.29%" gradientUnits="userSpaceOnUse" id="SvgjsLinearGradient1107"><stop stop-color="#0e2a47" offset="0"></stop><stop stop-color="rgba(50, 159, 255, 1)" offset="1"></stop></linearGradient></defs></svg>